<svg xmlns="http://www.w3.org/2000/svg" viewBox="0 0 32 32" fill="none">
  <defs>
    <linearGradient id="g" x1="0%" y1="0%" x2="100%" y2="100%">
      <stop offset="0%" stop-color="#0ea5e9"/>
      <stop offset="100%" stop-color="#06b6d4"/>
    </linearGradient>
  </defs>
  <g transform="translate(16, 16)">
    <!-- Brain outline - left -->
    <path d="M-1 -12 C-1 -12, -4 -13, -9 -12 C-12 -11, -13 -9, -13 -5 C-13 -2, -12 1, -12 4 C-12 7, -13 10, -9 12 C-5 13, -2 12, -1 10 L-1 -12Z"
          stroke="url(#g)" stroke-width="1.5" fill="none" stroke-linecap="round"/>
    <!-- Brain outline - right -->
    <path d="M1 -12 C1 -12, 4 -13, 9 -12 C12 -11, 13 -9, 13 -5 C13 -2, 12 1, 12 4 C12 7, 13 10, 9 12 C5 13, 2 12, 1 10 L1 -12Z"
          stroke="url(#g)" stroke-width="1.5" fill="none" stroke-linecap="round"/>

    <!-- Center lines -->
    <line x1="0" y1="-10" x2="0" y2="-6" stroke="url(#g)" stroke-width="1.2" stroke-linecap="round"/>
    <line x1="0" y1="6" x2="0" y2="10" stroke="url(#g)" stroke-width="1.2" stroke-linecap="round"/>

    <!-- Left circuits -->
    <path d="M-3 -7 L-3 -5 L-7 -5" stroke="url(#g)" stroke-width="1.2" fill="none" stroke-linecap="round" stroke-linejoin="round"/>
    <path d="M-3 0 L-8 0" stroke="url(#g)" stroke-width="1.2" fill="none" stroke-linecap="round"/>
    <path d="M-3 5 L-3 7 L-6 7" stroke="url(#g)" stroke-width="1.2" fill="none" stroke-linecap="round" stroke-linejoin="round"/>

    <!-- Right circuits -->
    <path d="M3 -7 L3 -5 L7 -5" stroke="url(#g)" stroke-width="1.2" fill="none" stroke-linecap="round" stroke-linejoin="round"/>
    <path d="M3 0 L8 0" stroke="url(#g)" stroke-width="1.2" fill="none" stroke-linecap="round"/>
    <path d="M3 5 L3 7 L6 7" stroke="url(#g)" stroke-width="1.2" fill="none" stroke-linecap="round" stroke-linejoin="round"/>

    <!-- Nodes -->
    <circle cx="-3" cy="-7" r="1.3" fill="url(#g)"/>
    <circle cx="-7" cy="-5" r="1.3" fill="url(#g)"/>
    <circle cx="-3" cy="0" r="1.3" fill="url(#g)"/>
    <circle cx="-8" cy="0" r="1.3" fill="url(#g)"/>
    <circle cx="-3" cy="5" r="1.3" fill="url(#g)"/>
    <circle cx="-6" cy="7" r="1.2" fill="url(#g)"/>

    <circle cx="3" cy="-7" r="1.3" fill="url(#g)"/>
    <circle cx="7" cy="-5" r="1.3" fill="url(#g)"/>
    <circle cx="3" cy="0" r="1.3" fill="url(#g)"/>
    <circle cx="8" cy="0" r="1.3" fill="url(#g)"/>
    <circle cx="3" cy="5" r="1.3" fill="url(#g)"/>
    <circle cx="6" cy="7" r="1.2" fill="url(#g)"/>

    <circle cx="0" cy="-6" r="1.3" fill="url(#g)"/>
    <circle cx="0" cy="6" r="1.3" fill="url(#g)"/>
  </g>
</svg>
