<svg xmlns="http://www.w3.org/2000/svg" viewBox="0 0 32 32" fill="none">
  <defs>
    <linearGradient id="g" x1="0%" y1="0%" x2="100%" y2="100%">
      <stop offset="0%" stop-color="#0ea5e9"/>
      <stop offset="100%" stop-color="#06b6d4"/>
    </linearGradient>
  </defs>
  <g transform="translate(16, 16)">
    <path d="M-12 0 C-12 -11, -6 -16, 0 -16 C6 -16, 12 -11, 12 0 C12 9, 6 13, 0 13 C-6 13, -12 9, -12 0Z"
          stroke="url(#g)" stroke-width="1.5" fill="none"/>
    <path d="M-9 -10 Q-4 -14, 1 -11 Q6 -9, 9 -11" stroke="url(#g)" stroke-width="1.2" fill="none" stroke-linecap="round"/>
    <path d="M-10 -5 Q-5 -9, 0 -6 Q5 -4, 10 -6" stroke="url(#g)" stroke-width="1.2" fill="none" stroke-linecap="round"/>
    <path d="M-11 1 Q-6 -3, 0 0 Q6 3, 11 0" stroke="url(#g)" stroke-width="1.2" fill="none" stroke-linecap="round"/>
    <path d="M-10 6 Q-5 4, 0 6 Q5 9, 9 5" stroke="url(#g)" stroke-width="1.2" fill="none" stroke-linecap="round"/>
    <circle cx="0" cy="0" r="2" fill="url(#g)"/>
    <circle cx="0" cy="-6" r="1.5" fill="url(#g)"/>
    <circle cx="0" cy="6" r="1.5" fill="url(#g)"/>
    <line x1="0" y1="-6" x2="0" y2="0" stroke="url(#g)" stroke-width="1" stroke-linecap="round"/>
    <line x1="0" y1="0" x2="0" y2="6" stroke="url(#g)" stroke-width="1" stroke-linecap="round"/>
  </g>
</svg>
