<svg xmlns="http://www.w3.org/2000/svg" viewBox="0 0 32 32" fill="none">
  <defs>
    <linearGradient id="g" x1="0%" y1="0%" x2="100%" y2="100%">
      <stop offset="0%" stop-color="#0ea5e9"/>
      <stop offset="100%" stop-color="#06b6d4"/>
    </linearGradient>
  </defs>
  <g transform="translate(16, 16)">
    <!-- Brain outline - left hemisphere (elongated oval) -->
    <path d="M-1 -13 C-5 -13, -9 -10, -9 0 C-9 10, -5 13, -1 13"
          stroke="url(#g)" stroke-width="1.5" fill="none" stroke-linecap="round"/>
    <!-- Brain outline - right hemisphere -->
    <path d="M1 -13 C5 -13, 9 -10, 9 0 C9 10, 5 13, 1 13"
          stroke="url(#g)" stroke-width="1.5" fill="none" stroke-linecap="round"/>

    <!-- Center lines -->
    <line x1="0" y1="-11" x2="0" y2="-7" stroke="url(#g)" stroke-width="1.2" stroke-linecap="round"/>
    <line x1="0" y1="7" x2="0" y2="11" stroke="url(#g)" stroke-width="1.2" stroke-linecap="round"/>

    <!-- Left circuits -->
    <path d="M-2 -8 L-2 -6 L-5 -6" stroke="url(#g)" stroke-width="1.2" fill="none" stroke-linecap="round" stroke-linejoin="round"/>
    <path d="M-2 0 L-6 0" stroke="url(#g)" stroke-width="1.2" fill="none" stroke-linecap="round"/>
    <path d="M-2 8 L-2 6 L-4 6" stroke="url(#g)" stroke-width="1.2" fill="none" stroke-linecap="round" stroke-linejoin="round"/>

    <!-- Right circuits -->
    <path d="M2 -8 L2 -6 L5 -6" stroke="url(#g)" stroke-width="1.2" fill="none" stroke-linecap="round" stroke-linejoin="round"/>
    <path d="M2 0 L6 0" stroke="url(#g)" stroke-width="1.2" fill="none" stroke-linecap="round"/>
    <path d="M2 8 L2 6 L4 6" stroke="url(#g)" stroke-width="1.2" fill="none" stroke-linecap="round" stroke-linejoin="round"/>

    <!-- Nodes -->
    <circle cx="-2" cy="-8" r="1.3" fill="url(#g)"/>
    <circle cx="-5" cy="-6" r="1.3" fill="url(#g)"/>
    <circle cx="-2" cy="0" r="1.3" fill="url(#g)"/>
    <circle cx="-6" cy="0" r="1.3" fill="url(#g)"/>
    <circle cx="-2" cy="8" r="1.3" fill="url(#g)"/>
    <circle cx="-4" cy="6" r="1.2" fill="url(#g)"/>

    <circle cx="2" cy="-8" r="1.3" fill="url(#g)"/>
    <circle cx="5" cy="-6" r="1.3" fill="url(#g)"/>
    <circle cx="2" cy="0" r="1.3" fill="url(#g)"/>
    <circle cx="6" cy="0" r="1.3" fill="url(#g)"/>
    <circle cx="2" cy="8" r="1.3" fill="url(#g)"/>
    <circle cx="4" cy="6" r="1.2" fill="url(#g)"/>

    <circle cx="0" cy="-7" r="1.3" fill="url(#g)"/>
    <circle cx="0" cy="7" r="1.3" fill="url(#g)"/>
  </g>
</svg>
