<svg xmlns="http://www.w3.org/2000/svg" viewBox="0 0 100 100" fill="none">
  <defs>
    <linearGradient id="cortecGradient" x1="0%" y1="0%" x2="100%" y2="100%">
      <stop offset="0%" stop-color="#0ea5e9"/>
      <stop offset="50%" stop-color="#06b6d4"/>
      <stop offset="100%" stop-color="#22d3ee"/>
    </linearGradient>
  </defs>

  <g transform="translate(50, 50)">
    <!-- Brain outline - left hemisphere -->
    <path d="M-2 -38
             C-2 -38, -8 -40, -18 -38
             C-28 -36, -36 -28, -38 -18
             C-40 -8, -38 -2, -36 5
             C-34 12, -38 18, -40 24
             C-42 30, -38 38, -28 40
             C-18 42, -8 38, -2 32
             L-2 -38Z"
          stroke="url(#cortecGradient)"
          stroke-width="2.5"
          fill="none"
          stroke-linecap="round"
          stroke-linejoin="round"/>

    <!-- Brain outline - right hemisphere -->
    <path d="M2 -38
             C2 -38, 8 -40, 18 -38
             C28 -36, 36 -28, 38 -18
             C40 -8, 38 -2, 36 5
             C34 12, 38 18, 40 24
             C42 30, 38 38, 28 40
             C18 42, 8 38, 2 32
             L2 -38Z"
          stroke="url(#cortecGradient)"
          stroke-width="2.5"
          fill="none"
          stroke-linecap="round"
          stroke-linejoin="round"/>

    <!-- Center divider -->
    <line x1="0" y1="-32" x2="0" y2="-20" stroke="url(#cortecGradient)" stroke-width="2" stroke-linecap="round"/>
    <line x1="0" y1="20" x2="0" y2="32" stroke="url(#cortecGradient)" stroke-width="2" stroke-linecap="round"/>

    <!-- Left hemisphere circuits -->
    <!-- Top circuit branch -->
    <path d="M-6 -28 L-6 -20 L-18 -20" stroke="url(#cortecGradient)" stroke-width="2" fill="none" stroke-linecap="round" stroke-linejoin="round"/>
    <circle cx="-6" cy="-28" r="2.5" fill="url(#cortecGradient)"/>
    <circle cx="-18" cy="-20" r="2.5" fill="url(#cortecGradient)"/>

    <!-- Upper middle circuit -->
    <path d="M-6 -12 L-14 -12 L-14 -4 L-24 -4" stroke="url(#cortecGradient)" stroke-width="2" fill="none" stroke-linecap="round" stroke-linejoin="round"/>
    <circle cx="-6" cy="-12" r="2.5" fill="url(#cortecGradient)"/>
    <circle cx="-24" cy="-4" r="2.5" fill="url(#cortecGradient)"/>

    <!-- Middle circuit -->
    <path d="M-6 4 L-20 4" stroke="url(#cortecGradient)" stroke-width="2" fill="none" stroke-linecap="round"/>
    <circle cx="-6" cy="4" r="2.5" fill="url(#cortecGradient)"/>
    <circle cx="-20" cy="4" r="2.5" fill="url(#cortecGradient)"/>

    <!-- Lower middle circuit -->
    <path d="M-6 12 L-14 12 L-14 20 L-22 20" stroke="url(#cortecGradient)" stroke-width="2" fill="none" stroke-linecap="round" stroke-linejoin="round"/>
    <circle cx="-6" cy="12" r="2.5" fill="url(#cortecGradient)"/>
    <circle cx="-22" cy="20" r="2.5" fill="url(#cortecGradient)"/>

    <!-- Bottom circuit -->
    <path d="M-6 28 L-6 22 L-12 22" stroke="url(#cortecGradient)" stroke-width="2" fill="none" stroke-linecap="round" stroke-linejoin="round"/>
    <circle cx="-6" cy="28" r="2.5" fill="url(#cortecGradient)"/>
    <circle cx="-12" cy="22" r="2" fill="url(#cortecGradient)"/>

    <!-- Right hemisphere circuits (mirrored) -->
    <!-- Top circuit branch -->
    <path d="M6 -28 L6 -20 L18 -20" stroke="url(#cortecGradient)" stroke-width="2" fill="none" stroke-linecap="round" stroke-linejoin="round"/>
    <circle cx="6" cy="-28" r="2.5" fill="url(#cortecGradient)"/>
    <circle cx="18" cy="-20" r="2.5" fill="url(#cortecGradient)"/>

    <!-- Upper middle circuit -->
    <path d="M6 -12 L14 -12 L14 -4 L24 -4" stroke="url(#cortecGradient)" stroke-width="2" fill="none" stroke-linecap="round" stroke-linejoin="round"/>
    <circle cx="6" cy="-12" r="2.5" fill="url(#cortecGradient)"/>
    <circle cx="24" cy="-4" r="2.5" fill="url(#cortecGradient)"/>

    <!-- Middle circuit -->
    <path d="M6 4 L20 4" stroke="url(#cortecGradient)" stroke-width="2" fill="none" stroke-linecap="round"/>
    <circle cx="6" cy="4" r="2.5" fill="url(#cortecGradient)"/>
    <circle cx="20" cy="4" r="2.5" fill="url(#cortecGradient)"/>

    <!-- Lower middle circuit -->
    <path d="M6 12 L14 12 L14 20 L22 20" stroke="url(#cortecGradient)" stroke-width="2" fill="none" stroke-linecap="round" stroke-linejoin="round"/>
    <circle cx="6" cy="12" r="2.5" fill="url(#cortecGradient)"/>
    <circle cx="22" cy="20" r="2.5" fill="url(#cortecGradient)"/>

    <!-- Bottom circuit -->
    <path d="M6 28 L6 22 L12 22" stroke="url(#cortecGradient)" stroke-width="2" fill="none" stroke-linecap="round" stroke-linejoin="round"/>
    <circle cx="6" cy="28" r="2.5" fill="url(#cortecGradient)"/>
    <circle cx="12" cy="22" r="2" fill="url(#cortecGradient)"/>

    <!-- Center spine nodes -->
    <circle cx="0" cy="-20" r="2.5" fill="url(#cortecGradient)"/>
    <circle cx="0" cy="20" r="2.5" fill="url(#cortecGradient)"/>
  </g>
</svg>
