<svg xmlns="http://www.w3.org/2000/svg" viewBox="0 0 100 100" fill="none">
  <defs>
    <linearGradient id="cortecGradient" x1="0%" y1="0%" x2="100%" y2="100%">
      <stop offset="0%" stop-color="#0ea5e9"/>
      <stop offset="50%" stop-color="#06b6d4"/>
      <stop offset="100%" stop-color="#22d3ee"/>
    </linearGradient>
  </defs>

  <g transform="translate(50, 50)">
    <!-- Brain outline - left hemisphere (elongated oval, taller than wide) -->
    <path d="M-2 -42 C-12 -42, -28 -32, -28 0 C-28 32, -12 42, -2 42"
          stroke="url(#cortecGradient)"
          stroke-width="2.5"
          fill="none"
          stroke-linecap="round"/>

    <!-- Brain outline - right hemisphere -->
    <path d="M2 -42 C12 -42, 28 -32, 28 0 C28 32, 12 42, 2 42"
          stroke="url(#cortecGradient)"
          stroke-width="2.5"
          fill="none"
          stroke-linecap="round"/>

    <!-- Center divider -->
    <line x1="0" y1="-36" x2="0" y2="-22" stroke="url(#cortecGradient)" stroke-width="2" stroke-linecap="round"/>
    <line x1="0" y1="22" x2="0" y2="36" stroke="url(#cortecGradient)" stroke-width="2" stroke-linecap="round"/>

    <!-- Left hemisphere circuits -->
    <path d="M-5 -28 L-5 -22 L-14 -22" stroke="url(#cortecGradient)" stroke-width="2" fill="none" stroke-linecap="round" stroke-linejoin="round"/>
    <circle cx="-5" cy="-28" r="2.5" fill="url(#cortecGradient)"/>
    <circle cx="-14" cy="-22" r="2.5" fill="url(#cortecGradient)"/>

    <path d="M-5 -8 L-12 -8 L-12 0 L-20 0" stroke="url(#cortecGradient)" stroke-width="2" fill="none" stroke-linecap="round" stroke-linejoin="round"/>
    <circle cx="-5" cy="-8" r="2.5" fill="url(#cortecGradient)"/>
    <circle cx="-20" cy="0" r="2.5" fill="url(#cortecGradient)"/>

    <path d="M-5 8 L-12 8 L-12 18 L-16 18" stroke="url(#cortecGradient)" stroke-width="2" fill="none" stroke-linecap="round" stroke-linejoin="round"/>
    <circle cx="-5" cy="8" r="2.5" fill="url(#cortecGradient)"/>
    <circle cx="-16" cy="18" r="2.5" fill="url(#cortecGradient)"/>

    <path d="M-5 28 L-5 22 L-10 22" stroke="url(#cortecGradient)" stroke-width="2" fill="none" stroke-linecap="round" stroke-linejoin="round"/>
    <circle cx="-5" cy="28" r="2.5" fill="url(#cortecGradient)"/>
    <circle cx="-10" cy="22" r="2" fill="url(#cortecGradient)"/>

    <!-- Right hemisphere circuits (mirrored) -->
    <path d="M5 -28 L5 -22 L14 -22" stroke="url(#cortecGradient)" stroke-width="2" fill="none" stroke-linecap="round" stroke-linejoin="round"/>
    <circle cx="5" cy="-28" r="2.5" fill="url(#cortecGradient)"/>
    <circle cx="14" cy="-22" r="2.5" fill="url(#cortecGradient)"/>

    <path d="M5 -8 L12 -8 L12 0 L20 0" stroke="url(#cortecGradient)" stroke-width="2" fill="none" stroke-linecap="round" stroke-linejoin="round"/>
    <circle cx="5" cy="-8" r="2.5" fill="url(#cortecGradient)"/>
    <circle cx="20" cy="0" r="2.5" fill="url(#cortecGradient)"/>

    <path d="M5 8 L12 8 L12 18 L16 18" stroke="url(#cortecGradient)" stroke-width="2" fill="none" stroke-linecap="round" stroke-linejoin="round"/>
    <circle cx="5" cy="8" r="2.5" fill="url(#cortecGradient)"/>
    <circle cx="16" cy="18" r="2.5" fill="url(#cortecGradient)"/>

    <path d="M5 28 L5 22 L10 22" stroke="url(#cortecGradient)" stroke-width="2" fill="none" stroke-linecap="round" stroke-linejoin="round"/>
    <circle cx="5" cy="28" r="2.5" fill="url(#cortecGradient)"/>
    <circle cx="10" cy="22" r="2" fill="url(#cortecGradient)"/>

    <!-- Center spine nodes -->
    <circle cx="0" cy="-22" r="2.5" fill="url(#cortecGradient)"/>
    <circle cx="0" cy="22" r="2.5" fill="url(#cortecGradient)"/>
  </g>
</svg>
