<svg xmlns="http://www.w3.org/2000/svg" viewBox="0 0 100 100" fill="none">
  <defs>
    <linearGradient id="cortecGradient" x1="0%" y1="0%" x2="100%" y2="100%">
      <stop offset="0%" stop-color="#0ea5e9"/>
      <stop offset="50%" stop-color="#06b6d4"/>
      <stop offset="100%" stop-color="#22d3ee"/>
    </linearGradient>
  </defs>

  <g transform="translate(50, 50)">
    <!-- Brain outline - left hemisphere (top-down view, oval) -->
    <path d="M-2 -35
             C-18 -35, -38 -25, -40 0
             C-38 25, -18 35, -2 35"
          stroke="url(#cortecGradient)"
          stroke-width="2.5"
          fill="none"
          stroke-linecap="round"
          stroke-linejoin="round"/>

    <!-- Brain outline - right hemisphere (top-down view, oval) -->
    <path d="M2 -35
             C18 -35, 38 -25, 40 0
             C38 25, 18 35, 2 35"
          stroke="url(#cortecGradient)"
          stroke-width="2.5"
          fill="none"
          stroke-linecap="round"
          stroke-linejoin="round"/>

    <!-- Center divider -->
    <line x1="0" y1="-30" x2="0" y2="-18" stroke="url(#cortecGradient)" stroke-width="2" stroke-linecap="round"/>
    <line x1="0" y1="18" x2="0" y2="30" stroke="url(#cortecGradient)" stroke-width="2" stroke-linecap="round"/>

    <!-- Left hemisphere circuits -->
    <path d="M-5 -24 L-5 -18 L-18 -18" stroke="url(#cortecGradient)" stroke-width="2" fill="none" stroke-linecap="round" stroke-linejoin="round"/>
    <circle cx="-5" cy="-24" r="2.5" fill="url(#cortecGradient)"/>
    <circle cx="-18" cy="-18" r="2.5" fill="url(#cortecGradient)"/>

    <path d="M-5 -8 L-14 -8 L-14 0 L-26 0" stroke="url(#cortecGradient)" stroke-width="2" fill="none" stroke-linecap="round" stroke-linejoin="round"/>
    <circle cx="-5" cy="-8" r="2.5" fill="url(#cortecGradient)"/>
    <circle cx="-26" cy="0" r="2.5" fill="url(#cortecGradient)"/>

    <path d="M-5 8 L-14 8 L-14 16 L-20 16" stroke="url(#cortecGradient)" stroke-width="2" fill="none" stroke-linecap="round" stroke-linejoin="round"/>
    <circle cx="-5" cy="8" r="2.5" fill="url(#cortecGradient)"/>
    <circle cx="-20" cy="16" r="2.5" fill="url(#cortecGradient)"/>

    <path d="M-5 24 L-5 18 L-12 18" stroke="url(#cortecGradient)" stroke-width="2" fill="none" stroke-linecap="round" stroke-linejoin="round"/>
    <circle cx="-5" cy="24" r="2.5" fill="url(#cortecGradient)"/>
    <circle cx="-12" cy="18" r="2" fill="url(#cortecGradient)"/>

    <!-- Right hemisphere circuits (mirrored) -->
    <path d="M5 -24 L5 -18 L18 -18" stroke="url(#cortecGradient)" stroke-width="2" fill="none" stroke-linecap="round" stroke-linejoin="round"/>
    <circle cx="5" cy="-24" r="2.5" fill="url(#cortecGradient)"/>
    <circle cx="18" cy="-18" r="2.5" fill="url(#cortecGradient)"/>

    <path d="M5 -8 L14 -8 L14 0 L26 0" stroke="url(#cortecGradient)" stroke-width="2" fill="none" stroke-linecap="round" stroke-linejoin="round"/>
    <circle cx="5" cy="-8" r="2.5" fill="url(#cortecGradient)"/>
    <circle cx="26" cy="0" r="2.5" fill="url(#cortecGradient)"/>

    <path d="M5 8 L14 8 L14 16 L20 16" stroke="url(#cortecGradient)" stroke-width="2" fill="none" stroke-linecap="round" stroke-linejoin="round"/>
    <circle cx="5" cy="8" r="2.5" fill="url(#cortecGradient)"/>
    <circle cx="20" cy="16" r="2.5" fill="url(#cortecGradient)"/>

    <path d="M5 24 L5 18 L12 18" stroke="url(#cortecGradient)" stroke-width="2" fill="none" stroke-linecap="round" stroke-linejoin="round"/>
    <circle cx="5" cy="24" r="2.5" fill="url(#cortecGradient)"/>
    <circle cx="12" cy="18" r="2" fill="url(#cortecGradient)"/>

    <!-- Center spine nodes -->
    <circle cx="0" cy="-18" r="2.5" fill="url(#cortecGradient)"/>
    <circle cx="0" cy="18" r="2.5" fill="url(#cortecGradient)"/>
  </g>
</svg>
